<?xml version="1.0" standalone="no"?>
<!DOCTYPE svg PUBLIC "-//W3C//DTD SVG 20010904//EN"
 "http://www.w3.org/TR/2001/REC-SVG-20010904/DTD/svg10.dtd">
<svg version="1.0" xmlns="http://www.w3.org/2000/svg"
 width="187.000000pt" height="187.000000pt" viewBox="0 0 187.000000 187.000000"
 preserveAspectRatio="xMidYMid meet">
<metadata>
Created by potrace 1.11, written by Peter Selinger 2001-2013
</metadata>
<g transform="translate(0.000000,187.000000) scale(0.100000,-0.100000)"
fill="#000000" stroke="none">
<path d="M288 1673 c-5 -20 -2 -490 6 -843 3 -124 5 -257 5 -297 1 -82 0 -81
103 -88 155 -11 229 -16 313 -20 50 -3 117 -7 150 -10 33 -2 103 -7 155 -10
52 -3 124 -8 160 -11 36 -2 111 -6 168 -9 l103 -6 -3 178 -3 178 66 -3 c62 -3
109 10 109 30 0 4 -14 38 -31 75 -17 38 -49 109 -71 158 -23 50 -44 95 -48
100 -23 33 -32 97 -36 275 -3 107 -8 198 -12 202 -7 7 -88 17 -262 33 -36 4
-85 8 -110 11 -72 7 -120 12 -190 19 -36 3 -81 8 -100 10 -19 2 -66 6 -105 10
-38 3 -108 10 -155 15 -214 23 -207 23 -212 3z m67 -54 c-10 -15 -25 -10 -19
6 4 8 10 12 15 9 5 -3 7 -10 4 -15z m121 -53 c22 -3 68 -7 104 -11 36 -3 79
-8 97 -10 17 -2 62 -6 100 -10 37 -3 84 -7 103 -10 19 -2 60 -6 90 -9 357 -35
347 -34 352 -59 8 -46 -1 -57 -40 -52 -49 6 -192 18 -347 29 -88 6 -189 15
-235 21 -39 4 -182 17 -245 21 -22 1 -45 3 -50 3 -6 1 -11 21 -11 46 -1 32 3
45 15 48 9 2 19 2 22 0 4 -1 24 -5 45 -7z m751 -22 c-3 -3 -12 -4 -19 -1 -8 3
-5 6 6 6 11 1 17 -2 13 -5z m100 -10 c-3 -3 -12 -4 -19 -1 -8 3 -5 6 6 6 11 1
17 -2 13 -5z m49 -50 c1 -41 1 -43 -3 -9 -3 22 -10 46 -16 54 -10 11 -9 13 3
9 10 -3 15 -20 16 -54z m9 -73 c3 -5 1 -12 -5 -16 -5 -3 -10 1 -10 9 0 18 6
21 15 7z m-730 -27 c22 -2 74 -5 115 -8 60 -4 76 -8 82 -23 4 -10 18 -40 30
-68 26 -61 48 -117 48 -127 0 -7 -71 -4 -185 6 -27 3 -84 8 -125 11 -41 4 -78
10 -82 13 -8 8 -78 190 -78 204 0 9 19 8 195 -8z m735 -8 c0 -3 -4 -8 -10 -11
-5 -3 -10 -1 -10 4 0 6 5 11 10 11 6 0 10 -2 10 -4z m-260 -32 c41 -3 91 -7
110 -8 32 -2 38 -7 61 -55 17 -35 27 -72 28 -108 l2 -54 -73 5 c-40 3 -109 9
-153 12 -44 4 -85 7 -92 7 -7 0 -14 5 -17 11 -2 6 -23 55 -45 109 l-40 98 72
-6 c40 -3 106 -8 147 -11z m-783 -66 c-3 -7 -5 -2 -5 12 0 14 2 19 5 13 2 -7
2 -19 0 -25z m158 -228 c53 -140 99 -257 101 -259 2 -3 30 -6 62 -7 102 -5
266 -14 312 -18 25 -3 99 -8 165 -11 178 -10 184 -11 190 -17 3 -3 7 -53 9
-111 4 -112 2 -116 -44 -111 -14 1 -77 5 -140 8 -63 4 -137 8 -165 11 -27 2
-104 6 -170 10 -66 3 -147 8 -180 10 -33 3 -98 7 -144 9 -46 3 -85 7 -88 9 -3
4 -10 299 -13 597 -2 128 -1 144 4 139 2 -2 48 -119 101 -259z m-158 178 c-3
-7 -5 -2 -5 12 0 14 2 19 5 13 2 -7 2 -19 0 -25z m1 -49 c-3 -8 -7 -3 -11 10
-4 17 -3 21 5 13 5 -5 8 -16 6 -23z m-1 -51 c-3 -7 -5 -2 -5 12 0 14 2 19 5
13 2 -7 2 -19 0 -25z m333 -13 c52 -3 111 -8 130 -10 19 -2 59 -5 88 -6 28 -1
56 -7 61 -13 5 -6 25 -49 44 -96 20 -47 43 -101 51 -121 l15 -36 -52 3 c-29 2
-92 6 -142 8 -133 8 -209 16 -217 24 -6 6 -98 247 -98 257 0 2 6 3 13 0 6 -2
55 -6 107 -10z m-333 -162 c-2 -32 -3 -8 -3 52 0 61 1 87 3 58 2 -29 2 -78 0
-110z m868 121 c50 -3 96 -7 103 -7 7 0 12 -16 13 -41 0 -23 3 -79 4 -125 l4
-83 -101 6 c-55 3 -103 7 -105 10 -2 2 -28 60 -58 130 l-54 126 52 -5 c29 -2
93 -7 142 -11z m305 -267 c0 -2 -17 -1 -37 2 l-38 6 -3 80 -2 80 40 -82 c22
-45 40 -84 40 -86z m-1165 74 c3 -5 2 -12 -3 -15 -5 -3 -9 1 -9 9 0 17 3 19
12 6z m0 -70 c3 -5 2 -12 -3 -15 -5 -3 -9 1 -9 9 0 17 3 19 12 6z m2 -51 c1
-11 -1 -22 -5 -24 -4 -2 -8 7 -8 20 -1 13 1 24 5 24 4 0 7 -9 8 -20z m3 -55
c0 -8 -2 -15 -4 -15 -2 0 -6 7 -10 15 -3 8 -1 15 4 15 6 0 10 -7 10 -15z m1
-92 c0 -38 2 -78 3 -90 2 -13 -1 -23 -5 -23 -4 0 -9 41 -11 90 -2 50 0 90 5
90 4 0 7 -30 8 -67z m442 -140 c-7 -2 -19 -2 -25 0 -7 3 -2 5 12 5 14 0 19 -2
13 -5z m334 -19 c-3 -3 -12 -4 -19 -1 -8 3 -5 6 6 6 11 1 17 -2 13 -5z m160
-10 c-3 -3 -12 -4 -19 -1 -8 3 -5 6 6 6 11 1 17 -2 13 -5z m103 -4 c0 -5 -10
-10 -22 -9 -22 0 -22 1 -3 9 11 5 21 9 23 9 1 1 2 -3 2 -9z"/>
</g>
</svg>
