<svg xmlns:dc="http://purl.org/dc/elements/1.1/" xmlns:cc="http://creativecommons.org/ns#" xmlns:rdf="http://www.w3.org/1999/02/22-rdf-syntax-ns#" xmlns:svg="http://www.w3.org/2000/svg" xmlns="http://www.w3.org/2000/svg" xmlns:sodipodi="http://sodipodi.sourceforge.net/DTD/sodipodi-0.dtd" xmlns:inkscape="http://www.inkscape.org/namespaces/inkscape" width="124" height="72" version="1.1" inkscape:version="0.92.3 (2405546, 2018-03-11)" sodipodi:docname="lengthdir.svg"><rect id="backgroundrect" width="100%" height="100%" x="0" y="0" fill="none" stroke="none" style="" class=""/>
  <defs id="defs2"/>
  <sodipodi:namedview id="base" pagecolor="#000914" bordercolor="#666666" borderopacity="1.0" inkscape:pageopacity="0" inkscape:pageshadow="2" inkscape:zoom="0.98994949" inkscape:cx="431.37317" inkscape:cy="624.47102" inkscape:document-units="mm" inkscape:current-layer="layer1" showgrid="false" inkscape:window-width="1920" inkscape:window-height="1051" inkscape:window-x="-9" inkscape:window-y="-9" inkscape:window-maximized="1"/>
  <metadata id="metadata5">
    <rdf:RDF>
      <cc:Work rdf:about="">
        <dc:format>image/svg+xml</dc:format>
        <dc:type rdf:resource="http://purl.org/dc/dcmitype/StillImage"/>
        <dc:title/>
      </cc:Work>
    </rdf:RDF>
  </metadata>
  
<g class="currentLayer" style=""><title>Layer 1</title><g inkscape:label="Layer 1" inkscape:groupmode="layer" id="layer1" class="">
    <path style="fill:#7588ff;fill-opacity:0;stroke:#7588ff;stroke-width:4.53543329;stroke-linecap:round;stroke-linejoin:round;stroke-miterlimit:4;stroke-dasharray:none;stroke-opacity:1" d="m321.34481051506526,566.5120532631784 c11.66663,13.52043 17.46648,30.72526 17.46484,47.98633 c-0.025300000000000013,-17.54662 -6.20586,-34.52825 -17.46484,-47.98633 z" transform="translate(-46.9375,-99.60235595703125) scale(0.2645833194255829) " id="path4582" inkscape:connector-curvature="0" sodipodi:nodetypes="ccc"/>
    <rect transform="matrix(0.00106188,-0.99999944,-0.9999997,-0.00077132923,0,0) " ry="0.6070805788040161" y="-22.748621412109507" x="-63.9767383051758" height="1.2141611576080322" width="63.993343353271484" id="rect4524" style="fill:#fff7ff;fill-opacity:0.97512436;stroke:#7289da;stroke-width:0;stroke-linecap:round;stroke-linejoin:round;stroke-miterlimit:4;stroke-dasharray:none;stroke-opacity:0.97647059"/>
    <rect style="fill:#fff7ff;fill-opacity:0.97512434;stroke:#7289da;stroke-width:0;stroke-linecap:round;stroke-linejoin:round;stroke-miterlimit:4;stroke-dasharray:none;stroke-opacity:0.97647059" id="rect4526" width="78.2922592163086" height="1.2141613960266113" x="21.52678638201088" y="-63.9746565958246" ry="0.6070806980133057" transform="matrix(0.99999962,0.00086794345,0.00094367797,-0.99999955,0,0) "/>
    <path id="rect4524-6" transform="translate(-46.9375,-99.60235595703125) scale(0.2645833194255829) " style="fill:#f14165;fill-opacity:1;stroke:#7289da;stroke-width:0;stroke-linecap:round;stroke-linejoin:round;stroke-miterlimit:4;stroke-dasharray:none;stroke-opacity:0.97647059" d="m545.7895705150652,382.3828632631784 c-0.58248,-0.047500000000000014 -1.18564,0.12557 -1.6796900000000006,0.52539 l-280.95898,227.375 l0.16992000000000007,3.32227 l3.32226,0.09770000000000008 l280.42383,-227.28515 c0.9866,-0.80145 1.09657,-2.26049 0.2773500000000001,-3.23242 c-0.4096100000000001,-0.4859700000000001 -0.9722099999999998,-0.7552300000000002 -1.5546900000000003,-0.8027400000000002 z"/>
    <text xml:space="preserve" style="font-style:normal;font-weight:normal;font-size:6.29025078px;line-height:1.25;font-family:sans-serif;letter-spacing:0px;word-spacing:0px;fill:#ffffff;fill-opacity:1;stroke:none;stroke-width:0.15725626" x="51.900763999999995" y="70.6432681355173" id="text4546"><tspan sodipodi:role="line" id="tspan4544" x="51.900763999999995" y="70.6432681355173" style="fill:#ffffff;stroke-width:0.15725626">x-axis</tspan></text>
    <flowRoot xml:space="preserve" id="flowRoot4548" style="fill:black;fill-opacity:1;stroke:none;font-family:sans-serif;font-style:normal;font-weight:normal;font-size:40px;line-height:1.25;letter-spacing:0px;word-spacing:0px" transform="translate(-0.578125,0.0000070462742769450415) translate(0,0.0000070462742769450415) translate(-46.9375,-99.60235595703125) "><flowRegion id="flowRegion4550"><rect id="rect4552" width="226.7792510986328" height="88.38835144042969" x="360.119384765625" y="596.230224609375"/></flowRegion><flowPara id="flowPara4554"/></flowRoot>    <text xml:space="preserve" style="font-style:normal;font-weight:normal;font-size:10.58333302px;line-height:1.25;font-family:sans-serif;letter-spacing:0px;word-spacing:0px;fill:#000000;fill-opacity:1;stroke:none;stroke-width:0.26458332" x="4.869202000000001" y="30.755108135517304" id="text4558"/>
    <text xml:space="preserve" style="font-style:normal;font-weight:normal;font-size:6.29025078px;line-height:1.25;font-family:sans-serif;letter-spacing:0px;word-spacing:0px;fill:#ffffff;fill-opacity:1;stroke:none;stroke-width:0.15725626" x="0.003512999999998101" y="33.00950813551731" id="text4546-3"><tspan sodipodi:role="line" x="0.003512999999998101" y="33.00950813551731" style="fill:#ffffff;stroke-width:0.15725626" id="tspan4578">y-axis</tspan></text>
    <text xml:space="preserve" style="font-style:normal;font-weight:normal;font-size:10.58333302px;line-height:1.25;font-family:sans-serif;letter-spacing:0px;word-spacing:0px;fill:#000000;fill-opacity:1;stroke:none;stroke-width:0.26458332" x="44.616074" y="53.294238135517304" id="text4592"/>
    <text xml:space="preserve" style="font-style:normal;font-weight:normal;font-size:6.29025078px;line-height:1.25;font-family:sans-serif;letter-spacing:0px;word-spacing:0px;fill:#7588ff;fill-opacity:1;stroke:none;stroke-width:0.15725626" x="44.340301999999994" y="57.11591813551729" id="text4546-4"><tspan sodipodi:role="line" id="tspan4544-7" x="44.340301999999994" y="57.11591813551729" style="fill:#7588ff;fill-opacity:1;stroke-width:0.15725626">dir</tspan></text>
    <path id="rect4524-6-3" transform="translate(-46.9375,-99.60235595703125) scale(0.2645833194255829) " style="fill:#7588ff;fill-opacity:0.94117647;stroke:#7289da;stroke-width:0;stroke-linecap:round;stroke-linejoin:round;stroke-miterlimit:4;stroke-dasharray:none;stroke-opacity:0.97647059" d="m525.6106905150652,381.7762032631784 c-0.16628000000000007,-0.028300000000000013 -1.17825,0.11983000000000003 -8,0.11133000000000003 c-1.6169200000000004,-0.002000000000000001 -1.56295,1.9478 -0.08980000000000003,2.03711 l4.34961,-0.013700000000000007 l-97.2723,78.11448 c-1.71506,1.5422799999999999 0.21157,3.14613 1.43559,2.3418 l97.45589,-78.31956 l0.06640000000000003,3.60938 c0.034000000000000016,1.9301300000000001 2.12809,1.71041 2.08398,0.26172 l0.03910000000000002,-8.04297 c-0.051200000000000016,-0.06080000000000003 -0.012900000000000003,-0.09020000000000006 -0.06840000000000003,-0.09960000000000008 zM389.33840051506525,490.53521326317843 L272.31496051506525,585.1543532631785 c0,0 0.06200000000000002,-2.32414 0.019500000000000007,-4.11719 c-0.10533000000000002,-2.5886 -2.4074,-2.13234 -2.47461,-0.015600000000000006 l0.08010000000000003,8.22266 l8.30664,-0.033200000000000014 c2.06188,-0.008000000000000004 1.5998800000000002,-2.04762 -0.15234000000000006,-2.05469 l-3.71094,-0.08400000000000003 l-0.002000000000000001,-0.002000000000000001 v-0.002000000000000001 L391.3598205150653,492.42185326317843 c1.6118100000000002,-1.6500400000000004 -0.16409000000000007,-3.45935 -2.02147,-1.88674 z" inkscape:connector-curvature="0" sodipodi:nodetypes="ccccccccccccccccccccccccc"/>
    <path id="text4546-4-8" style="font-style:normal;font-weight:normal;font-size:6.29025078px;line-height:1.25;font-family:sans-serif;letter-spacing:0px;word-spacing:0px;fill:#7588ff;fill-opacity:1;stroke:none;stroke-width:0.15725626" d="m62.94701499999999,22.812998135517304 c-0.25454,-0.01740000000000002 -0.5093099999999997,0.07360000000000004 -0.76443,0.27378 c-0.15947000000000008,0.12514 -0.28928000000000015,0.28036000000000016 -0.3888700000000003,0.46523 c-0.09960000000000012,0.18487 -0.17407,0.39169000000000015 -0.22354000000000013,0.6205200000000003 l-0.23521000000000009,-0.29965 l-0.45419,0.35661000000000015 l2.11788,2.69896 l0.45471,-0.35661000000000015 l-1.5817100000000002,-2.01531 c0.04950000000000002,-0.19237 0.11782000000000006,-0.3723000000000003 0.2051,-0.5396900000000003 c0.08730000000000004,-0.16741000000000017 0.19285000000000008,-0.2993600000000002 0.31688000000000033,-0.39670000000000016 c0.12082000000000002,-0.09470000000000009 0.23265,-0.1552600000000001 0.3349000000000003,-0.18085 c0.10099000000000002,-0.027200000000000016 0.19791000000000017,-0.02280000000000001 0.29128000000000015,0.013000000000000008 c0.08670000000000008,0.03090000000000002 0.18050000000000008,0.09530000000000007 0.28096000000000015,0.19345000000000012 c0.09920000000000012,0.09650000000000009 0.19729000000000016,0.20712 0.29462000000000016,0.33115000000000017 l1.20588,1.5365099999999998 l0.45419,-0.3561 l-1.3743100000000001,-1.7518000000000002 c-0.25914,-0.33021000000000017 -0.5345,-0.52352 -0.82532,-0.57901 c-0.0364,-0.007000000000000006 -0.0724,-0.01120000000000001 -0.10882000000000004,-0.01380000000000001 zm-2.99666,2.42031 c-0.31803000000000015,-0.013400000000000006 -0.63643,0.1048 -0.95498,0.35477000000000014 c-0.39304000000000017,0.30844000000000016 -0.6087500000000003,0.6868600000000004 -0.6468600000000003,1.13581 c-0.0364,0.44769000000000014 0.11875000000000006,0.8922800000000003 0.46511,1.33364 c0.35015,0.44620000000000015 0.7463500000000003,0.6921700000000006 1.18852,0.73821 c0.4409000000000002,0.04440000000000002 0.8852300000000003,-0.10905000000000002 1.33304,-0.46047000000000016 c0.17558,-0.13777 0.3259600000000003,-0.2908700000000003 0.45131000000000016,-0.4595 c0.12534,-0.16864000000000012 0.2394300000000001,-0.34508000000000033 0.3418900000000003,-0.5296000000000003 l-0.3889800000000003,-0.4955800000000003 l-0.02410000000000001,0.019200000000000005 c-0.023300000000000022,0.13282 -0.09950000000000009,0.30926000000000015 -0.22820000000000012,0.5299900000000003 c-0.12836,0.21786000000000008 -0.28408000000000017,0.3988600000000003 -0.46772,0.54296 c-0.13852,0.10871000000000004 -0.28111,0.1894500000000001 -0.4274200000000003,0.24181000000000008 c-0.1447100000000001,0.051100000000000034 -0.28916000000000014,0.0709 -0.43361000000000016,0.05930000000000003 c-0.1489300000000001,-0.010500000000000006 -0.29659,-0.05770000000000002 -0.44259000000000015,-0.14090000000000008 c-0.14727,-0.08480000000000004 -0.28614,-0.21023000000000008 -0.41635000000000016,-0.37614000000000014 l1.9886,-1.56047 l-0.1932200000000001,-0.24622000000000008 c-0.3071800000000002,-0.3914200000000003 -0.6432300000000003,-0.6159500000000003 -1.00823,-0.6730900000000006 c-0.04540000000000003,-0.008000000000000005 -0.09080000000000005,-0.01180000000000001 -0.13620000000000004,-0.01370000000000001 zm-0.15969000000000008,0.51359 c0.05640000000000001,-0.005000000000000003 0.11181,-0.0020000000000000013 0.1668000000000001,0.008000000000000005 c0.2215900000000001,0.0369 0.4270800000000002,0.17394000000000012 0.6157600000000003,0.41108000000000017 l-1.54644,1.21347 c-0.14753000000000008,-0.22781000000000012 -0.20607,-0.46967000000000014 -0.17522000000000001,-0.7255400000000003 c0.03250000000000002,-0.25714 0.17036,-0.48118000000000016 0.41359,-0.6720600000000003 c0.18123000000000009,-0.1422100000000001 0.35646000000000017,-0.22038000000000008 0.5255,-0.23445000000000008 zm-3.59342,0.4440600000000002 l-0.45471,0.35660000000000014 l2.95045,3.75978 l0.45421,-0.35661000000000015 z" inkscape:connector-curvature="0"/>
  </g></g></svg>