<?xml version="1.0" standalone="no"?>
<!DOCTYPE svg PUBLIC "-//W3C//DTD SVG 20010904//EN"
 "http://www.w3.org/TR/2001/REC-SVG-20010904/DTD/svg10.dtd">
<svg version="1.0" xmlns="http://www.w3.org/2000/svg"
 width="600.000000pt" height="600.000000pt" viewBox="0 0 600.000000 600.000000"
 preserveAspectRatio="xMidYMid meet">
<metadata>
Created by potrace 1.11, written by Peter Selinger 2001-2013
</metadata>
<g transform="translate(0.000000,600.000000) scale(0.100000,-0.100000)"
fill="#000000" stroke="none">
<path d="M1687 5030 c-42 -11 -133 -55 -141 -69 -3 -5 15 -25 42 -44 47 -35
123 -112 174 -178 22 -29 28 -32 45 -22 10 7 58 34 106 59 103 55 201 124 217
154 14 27 -2 50 -36 50 -12 0 -65 11 -116 25 -103 28 -233 39 -291 25z"/>
<path d="M3963 5003 c-79 -20 -143 -41 -143 -46 0 -28 115 -117 235 -181 118
-63 130 -68 139 -51 36 61 103 135 151 170 31 22 64 45 73 51 13 9 9 15 -29
37 -118 70 -212 74 -426 20z"/>
<path d="M2725 5023 c-76 -5 -446 -52 -478 -61 -16 -4 -43 -28 -65 -57 -49
-66 -149 -139 -269 -200 -77 -38 -116 -66 -181 -129 -103 -99 -186 -201 -267
-326 -134 -207 -185 -322 -276 -618 -33 -106 -91 -282 -130 -390 -98 -272 -97
-269 -70 -338 31 -82 36 -178 21 -412 -13 -199 -13 -208 8 -300 57 -251 221
-475 483 -658 87 -61 92 -68 181 -203 77 -119 173 -197 343 -281 207 -103 398
-152 735 -191 119 -13 494 -7 549 10 19 6 70 15 114 21 172 24 451 120 601
208 117 68 251 203 302 305 36 71 44 81 99 112 140 79 278 212 384 369 71 104
100 168 127 273 27 108 30 168 19 451 -7 191 -6 208 15 297 l23 94 -63 168
c-34 92 -78 218 -97 278 -106 339 -149 462 -202 570 -97 199 -240 400 -403
565 -64 66 -90 83 -203 139 -118 58 -138 72 -215 150 -93 94 -126 111 -216
111 -27 0 -76 5 -109 10 -173 30 -562 47 -760 33z m-531 -1198 c37 -25 59 -65
101 -194 58 -172 92 -208 173 -184 251 74 329 87 522 87 119 0 168 -5 273 -27
71 -15 154 -36 185 -47 73 -26 116 -26 143 1 24 24 69 116 69 141 0 38 66 184
98 215 29 29 39 33 85 33 66 0 98 -22 170 -116 48 -62 56 -68 107 -80 30 -7
77 -13 104 -14 64 0 156 -25 226 -60 112 -57 153 -110 169 -222 5 -35 20 -85
32 -113 35 -76 38 -215 9 -326 -41 -155 -49 -203 -65 -394 -28 -345 -52 -478
-112 -640 -20 -53 -38 -81 -75 -115 -42 -40 -55 -61 -102 -180 -29 -74 -58
-151 -65 -172 -32 -99 -133 -164 -386 -251 -334 -115 -609 -155 -975 -144
-256 8 -470 46 -713 127 -352 118 -409 160 -469 344 -43 132 -98 242 -136 273
-50 40 -85 108 -116 223 -34 130 -53 249 -66 420 -16 213 -38 373 -65 475 -34
125 -41 215 -21 290 8 33 23 89 32 125 10 36 21 81 26 101 20 88 113 174 223
208 33 10 103 24 155 31 52 6 106 14 119 16 13 3 66 48 117 101 l94 96 54 -6
c30 -3 66 -13 80 -22z"/>
<path d="M2090 3783 c-23 -9 -59 -44 -91 -90 -46 -66 -100 -92 -214 -104 -217
-22 -375 -121 -375 -233 0 -32 1 -32 45 -2 48 33 102 40 198 26 195 -28 246
-48 348 -139 73 -65 91 -104 92 -196 0 -99 -30 -165 -104 -221 -79 -61 -111
-68 -264 -61 -71 3 -172 11 -223 18 -51 6 -95 9 -98 6 -3 -3 -1 -43 5 -89 6
-46 18 -164 26 -262 24 -280 80 -518 139 -591 l24 -30 6 25 c3 14 15 79 27
145 48 280 154 500 322 668 110 110 259 200 409 247 108 34 141 53 228 134 86
79 163 125 250 150 74 21 204 23 260 3 8 -3 37 -11 63 -18 63 -16 158 -77 227
-148 79 -80 76 -78 212 -124 144 -50 229 -95 333 -177 217 -173 372 -479 411
-812 13 -113 42 -95 95 58 52 154 71 266 99 584 5 58 12 136 16 174 l7 69 -54
-7 c-115 -14 -346 -28 -391 -22 -86 9 -187 76 -224 148 -18 36 -29 151 -20
204 6 29 25 56 83 115 66 68 84 81 147 103 86 30 282 61 329 52 19 -4 51 -18
71 -31 20 -14 41 -25 46 -25 28 0 -11 99 -56 144 -62 61 -167 98 -334 116
-109 12 -136 26 -189 96 -20 26 -56 62 -79 78 -40 29 -45 30 -69 16 -32 -18
-54 -60 -99 -187 -81 -231 -117 -242 -464 -147 -73 20 -127 27 -233 31 -158 6
-243 -5 -392 -50 -65 -19 -130 -32 -188 -35 l-88 -4 -38 40 c-30 31 -46 63
-71 139 -64 191 -99 238 -160 216z"/>
<path d="M1612 3286 c-54 -50 -86 -117 -90 -198 -5 -80 11 -134 63 -213 l37
-55 126 0 c70 0 132 4 139 8 44 28 100 221 86 294 -17 92 -59 131 -184 173
-100 34 -130 33 -177 -9z"/>
<path d="M4196 3304 c-78 -19 -162 -68 -184 -107 -13 -24 -17 -56 -17 -127 0
-84 3 -102 29 -158 40 -87 49 -92 179 -92 139 0 155 8 201 100 48 97 53 142
27 229 -17 57 -31 81 -71 121 -55 56 -65 58 -164 34z"/>
<path d="M2883 3135 c-98 -27 -219 -103 -298 -185 -48 -50 -68 -61 -183 -101
-410 -145 -625 -409 -717 -881 -32 -162 -31 -188 5 -268 l29 -65 93 -23 c128
-33 264 -34 375 -4 117 32 341 132 438 197 99 65 225 196 279 288 60 104 88
103 160 -10 100 -155 247 -283 419 -363 45 -21 143 -60 217 -85 128 -45 140
-47 236 -46 107 0 238 22 286 47 37 19 78 110 78 171 0 57 -44 276 -72 363
-110 339 -336 570 -658 675 -120 39 -136 49 -215 125 -38 37 -94 81 -122 98
-114 68 -253 95 -350 67z m247 -181 c134 -25 200 -97 200 -218 0 -83 -31 -146
-115 -235 -121 -128 -222 -158 -341 -101 -59 29 -170 138 -210 205 -24 42 -28
60 -29 124 0 132 51 190 205 230 82 22 153 21 290 -5z"/>
<path d="M2919 2930 c-52 -9 -141 -44 -182 -73 -95 -65 -66 -210 68 -335 35
-33 88 -72 119 -87 65 -32 82 -29 171 31 104 69 187 190 187 273 0 70 -23 106
-90 140 -93 47 -190 65 -273 51z"/>
<path d="M2932 2046 c-55 -83 -129 -166 -200 -227 -67 -58 -332 -195 -455
-236 -76 -24 -95 -27 -252 -27 -93 -1 -194 3 -224 8 l-54 9 7 -27 c18 -71 51
-141 84 -175 30 -31 67 -50 192 -99 85 -33 184 -69 220 -80 141 -43 389 -92
525 -103 163 -14 415 -6 558 16 147 23 390 88 545 146 176 66 225 91 255 131
34 46 88 171 77 182 -4 4 -45 3 -91 -3 -193 -26 -340 -11 -504 53 -292 112
-436 218 -580 424 -27 39 -52 72 -55 72 -3 -1 -24 -29 -48 -64z"/>
<path d="M1349 4831 c-57 -38 -205 -134 -329 -215 -124 -80 -243 -158 -265
-173 -22 -16 -65 -43 -95 -61 -162 -97 -234 -236 -210 -405 45 -313 147 -617
298 -887 56 -100 87 -124 129 -100 24 13 39 45 105 232 43 120 114 333 158
473 49 155 100 295 129 353 93 190 216 366 375 540 l77 83 -23 40 c-42 75
-176 189 -223 189 -12 0 -69 -31 -126 -69z"/>
<path d="M4399 4853 c-75 -57 -149 -145 -149 -176 0 -14 21 -43 56 -77 120
-118 276 -336 360 -502 69 -138 108 -239 173 -453 33 -110 96 -299 139 -420
70 -196 82 -221 107 -234 53 -26 71 -9 151 144 208 397 321 848 259 1035 -29
88 -111 160 -388 340 -511 332 -603 390 -624 390 -12 0 -50 -21 -84 -47z"/>
</g>
</svg>
