<?xml version="1.0" encoding="utf-8"?>
<!-- Generator: Adobe Illustrator 22.0.1, SVG Export Plug-In . SVG Version: 6.00 Build 0)  -->
<svg version="1.1" id="Layer_1" xmlns="http://www.w3.org/2000/svg" xmlns:xlink="http://www.w3.org/1999/xlink" x="0px" y="0px"
	 viewBox="0 0 1920 1080" style="enable-background:new 0 0 1920 1080;" xml:space="preserve">
<style type="text/css">
	.st0{fill:#FFFFFF;}
</style>
<g>
	<g>
		<path class="st0" d="M539.3,346.5c160.5,0,320.9,0,481.4,0c0,103.2,0,206.3,0,309.6c-160.4,0-320.9,0-481.4,0
			C539.3,553,539.3,449.8,539.3,346.5z M710.1,415.6c0,2.7-0.1,4.5,0,6.3c0.5,8.8,1.6,17.7,1.6,26.5c0,11.6-1,23.2-1.2,34.7
			c-0.1,8.2-1.3,16.2-4.7,23.6c-4.2,9.2-9.1,18.2-14.4,26.8c-2.1,3.3-5.9,6-9.5,7.8c-6.5,3.3-12.5,1.4-15.8-5
			c-3.7-7.2-6.7-14.9-9.7-22.4c-1.5-3.8-3.3-5.5-6.3-4.5c-3.8,1.2-5,3.7-3.8,7.7c3.3,10.5,7.6,20.5,14.8,29
			c9.6,11.5,23.5,14.2,35.3,1.8c11.5-12.1,18.4-26.2,23.1-41.9c3.8-12.8,3.9-26,4.3-39.1c0.4-15.9-0.1-31.9-0.4-47.8
			c-0.1-7.8,0.3-9.2,8.9-12.9c14.3-6.2,28.8-11.7,44.2-14.5c7.5-1.4,15.1-2.5,22.5-0.7c3.6,0.9,7.3,2.6,10.1,4.9
			c5.5,4.6,3.3,10.5,1.4,16.1c-1.1,3.3-2.9,6.3-3.7,9.6c-0.5,2.1,0.1,4.5,0.2,6.8c1.9-1.1,3.9-2.1,5.8-3.2c0.4-0.2,0.7-0.7,1.1-1
			c6.5-6.5,10.4-14.2,9.9-23.6c-0.1-2.3-0.6-4.8-1.7-6.8c-4.1-7.5-10.6-12.2-18.6-15c-11.4-4-22.9-2.6-34,0.7
			c-14.5,4.3-28.8,9.3-43,14.7c-6.7,2.6-12.2,2-18.5-1.4c-8.8-4.8-17.9-8.7-28.2-9.8c-13.9-1.5-25.6,3.1-36.2,11.1
			c-3.1,2.3-5.3,5.9-8.1,8.6c-7,6.6-14.5,12.6-21.1,19.5c-12.1,12.7-24,25.6-35.4,39c-4.4,5.1-7.6,11.3-10.6,17.4
			c-3,6.1,2.2,13,8.6,11.8c4.8-0.9,9.8-1.6,14.4-3.3c12.2-4.3,22-12.8,32.7-19.7c6.8-4.4,12.9-9.8,19.7-14.1
			c15.7-9.8,31.7-19.3,47.7-28.6C697,421.4,703.2,418.9,710.1,415.6z M863,571.4c1.7-18.1-4.1-34.3-9.6-50.5
			c-4-11.8-8.4-23.4-12.7-35.1c-2-5.6-3.6-11.6-10-14c-1.5-0.6-3.8-1-4.8-0.3c-1.2,0.9-2.2,3.3-1.9,4.8c0.9,4.3,2,8.7,3.9,12.7
			c7,14.3,12.2,29.1,17,44.2c5.5,17,7.2,34.2,3.3,51.6c-1.3,5.8-2.6,11.9-5.4,17.1c-3.8,7.1-13.1,12.1-21.6,2.9
			c-4.8-5.2-9.8-10.2-14.3-15.7c-11.2-13.7-18.4-29.9-26.6-45.4c-2.8-5.2-6.1-10.2-9.7-14.9c-1.9-2.5-7.1-0.9-7.4,2.3
			c-0.2,2,0.8,4.3,1.8,6.2c8.7,15.9,17.3,31.8,26.2,47.5c7.9,13.9,18.2,25.8,32.4,33.7c12.4,6.9,25.4,2.9,30.9-9.7
			C859.9,596.8,865.1,584.7,863,571.4z M905,491.1c0.6,0.4,0.9,0.5,1.1,0.7c0.4,0.4,0.9,0.9,1.2,1.4c2.5,5.4,7,8.8,12,11.8
			c10.5,6.3,22,7.6,33.7,6.2c3.6-0.4,7.1-3,10.4-5.1c0.8-0.5,0.6-3.5-0.1-4.8c-0.6-1.2-2.9-2.8-3.9-2.5c-8.9,2.8-17.5,1.8-26.3-0.8
			c-7.3-2.2-13.4-7.2-13.5-13.2c-0.1-7.1,0-14.2,1.2-21.2c0.8-4.8,0.1-8-3.6-11.2c-4.8-4.1-6.9-3.9-9.8,1.7c-0.5,1-1.1,2-1.3,3.1
			c-2.8,16.8-13.7,28.5-25.2,39.8c-1.9,1.8-3.6,1.1-4-1.3c-1.4-9.5-2-19.1,0.3-28.5c1-4-2-10.7-5.9-11.5c-3.9-0.8-5.7,2.8-7.5,5.5
			c-0.6,0.9-1.1,2-1.2,3.1c-0.4,4.9-1,9.9-0.7,14.8c0.5,7.5,1.3,15.1,2.9,22.5c1.9,9.2,10.6,14,18.3,10.2c4.3-2.1,8-5.4,11.5-8.7
			C898.3,499.4,901.5,495.1,905,491.1z M752.4,511.7c-0.9-1.4-1.6-2-1.6-2.6c0-3.9-0.3-8,0.3-11.8c1-6.1-1.9-11.7-7.7-13.4
			c-4.1-1.2-7.6,1.3-7.5,5.6c0.1,7.9,0.2,15.7,0.7,23.6c0.3,5.3,2,10.3,7.5,12.7c6.2,2.7,11.7,1.5,16.2-3.5c4.4-4.9,8.6-9.9,13-14.9
			c1.7-2,3.5-3.8,6-6.5c0.9,3.5,1.5,6,2.2,8.5c2,6.1,3.9,11.9,11.8,12.9c7.2,1,11.9-0.8,15.4-7.4c2.6-4.9,1.1-12.4-3.3-16.4
			c-2.2-2-4.7-2.1-6.5,0.3c-1.1,1.6-1.5,3.8-2.1,5.7c-0.4,1.2-0.6,2.4-0.9,3.6c-0.4-0.1-0.8-0.1-1.2-0.2c-0.2-1-0.4-2.1-0.5-3.1
			c-0.3-7.7-0.5-15.5-0.8-23.2c0-0.8-0.1-1.8-0.5-2.5c-4.2-7.1-11.1-7.5-15.9-0.8c-0.1,0.1-0.1,0.2-0.2,0.3
			C768.9,489.6,760.9,500.4,752.4,511.7z M830.9,444.9c7.6-0.9,7.6-0.9,10-7.6c0.2-0.5,0.4-0.9,0.8-1.2c2.5-2.2,2.2-4.7,0.6-7.2
			c-1.7-2.7-3.3-5.7-7.4-5c-6.4,1.2-11.5,4.1-14.5,10.2c-1.4,3-1.1,5.8,1.8,7.5C824.9,443,828,443.8,830.9,444.9z"/>
		<path d="M710.1,415.6c-6.8,3.3-13,5.8-18.7,9.1c-16,9.3-32,18.8-47.7,28.6c-6.8,4.3-12.9,9.7-19.7,14.1
			c-10.7,6.9-20.4,15.5-32.7,19.7c-4.6,1.6-9.6,2.3-14.4,3.3c-6.4,1.2-11.5-5.7-8.6-11.8c3-6.1,6.2-12.3,10.6-17.4
			c11.4-13.3,23.3-26.3,35.4-39c6.6-6.9,14.1-13,21.1-19.5c2.9-2.7,5-6.3,8.1-8.6c10.7-8,22.4-12.6,36.2-11.1
			c10.3,1.1,19.4,5,28.2,9.8c6.2,3.4,11.7,3.9,18.5,1.4c14.2-5.4,28.5-10.4,43-14.7c11.1-3.3,22.6-4.8,34-0.7
			c8,2.8,14.4,7.6,18.6,15c1.1,2,1.5,4.5,1.7,6.8c0.6,9.4-3.3,17.1-9.9,23.6c-0.4,0.4-0.7,0.8-1.1,1c-1.9,1.1-3.9,2.1-5.8,3.2
			c-0.1-2.3-0.8-4.7-0.2-6.8c0.8-3.3,2.6-6.4,3.7-9.6c1.9-5.5,4-11.5-1.4-16.1c-2.8-2.4-6.5-4-10.1-4.9c-7.5-1.8-15-0.7-22.5,0.7
			c-15.4,2.8-29.9,8.4-44.2,14.5c-8.6,3.7-9.1,5.1-8.9,12.9c0.3,15.9,0.9,31.9,0.4,47.8c-0.3,13.1-0.4,26.3-4.3,39.1
			c-4.7,15.7-11.6,29.8-23.1,41.9c-11.8,12.4-25.6,9.7-35.3-1.8c-7.1-8.5-11.5-18.5-14.8-29c-1.3-4.1-0.1-6.5,3.8-7.7
			c3.1-1,4.8,0.7,6.3,4.5c3,7.6,6,15.2,9.7,22.4c3.2,6.4,9.3,8.3,15.8,5c3.6-1.8,7.4-4.5,9.5-7.8c5.3-8.6,10.2-17.6,14.4-26.8
			c3.4-7.3,4.6-15.4,4.7-23.6c0.2-11.6,1.2-23.2,1.2-34.7c0-8.8-1-17.7-1.6-26.5C710,420.2,710.1,418.4,710.1,415.6z M586.2,473.9
			c0.4,0.2,0.7,0.4,1.1,0.6c38.4-24.4,74.8-51.9,116.8-71.4c-7.4-5-14.3-8.6-22.7-8.3c-7.3,0.3-14.7,0.6-21,5.2
			c-12.8,9.5-25.6,19-36.4,30.8c-12.1,13.2-24.1,26.6-36.1,39.9C587.1,471.5,586.7,472.8,586.2,473.9z"/>
		<path d="M863,571.4c2.1,13.3-3.2,25.4-8.4,37.5c-5.5,12.5-18.4,16.5-30.9,9.7c-14.2-7.8-24.5-19.8-32.4-33.7
			c-9-15.7-17.6-31.6-26.2-47.5c-1-1.9-2-4.2-1.8-6.2c0.2-3.1,5.5-4.8,7.4-2.3c3.5,4.7,6.9,9.7,9.7,14.9
			c8.3,15.5,15.4,31.7,26.6,45.4c4.5,5.5,9.5,10.5,14.3,15.7c8.5,9.1,17.8,4.2,21.6-2.9c2.8-5.2,4.1-11.3,5.4-17.1
			c3.9-17.5,2.2-34.6-3.3-51.6c-4.8-15.1-10.1-30-17-44.2c-1.9-3.9-3-8.4-3.9-12.7c-0.3-1.5,0.7-3.9,1.9-4.8c1-0.7,3.3-0.3,4.8,0.3
			c6.4,2.4,8,8.4,10,14c4.3,11.7,8.7,23.3,12.7,35.1C858.9,537.2,864.7,553.4,863,571.4z"/>
		<path d="M905,491.1c-3.5,4-6.7,8.3-10.5,11.9c-3.5,3.3-7.3,6.6-11.5,8.7c-7.7,3.8-16.3-1-18.3-10.2c-1.6-7.4-2.3-15-2.9-22.5
			c-0.3-4.9,0.3-9.9,0.7-14.8c0.1-1.1,0.6-2.2,1.2-3.1c1.9-2.7,3.7-6.3,7.5-5.5c4,0.8,6.9,7.5,5.9,11.5c-2.2,9.5-1.6,19-0.3,28.5
			c0.3,2.4,2.1,3.2,4,1.3c11.4-11.3,22.3-23,25.2-39.8c0.2-1.1,0.8-2.1,1.3-3.1c3-5.7,5-5.8,9.8-1.7c3.8,3.2,4.4,6.4,3.6,11.2
			c-1.2,6.9-1.3,14.1-1.2,21.2c0.1,6,6.2,11,13.5,13.2c8.8,2.6,17.4,3.5,26.3,0.8c1-0.3,3.2,1.2,3.9,2.5c0.7,1.3,0.9,4.3,0.1,4.8
			c-3.2,2.1-6.7,4.7-10.4,5.1c-11.8,1.4-23.2,0.1-33.7-6.2c-5-3-9.4-6.3-12-11.8c-0.3-0.5-0.8-1-1.2-1.4
			C905.9,491.6,905.6,491.5,905,491.1z"/>
		<path d="M752.4,511.7c8.4-11.3,16.4-22.1,24.5-32.9c0.1-0.1,0.1-0.2,0.2-0.3c4.8-6.6,11.7-6.3,15.9,0.8c0.4,0.7,0.4,1.6,0.5,2.5
			c0.3,7.7,0.5,15.5,0.8,23.2c0,1.1,0.3,2.1,0.5,3.1c0.4,0.1,0.8,0.1,1.2,0.2c0.3-1.2,0.5-2.4,0.9-3.6c0.6-2,0.9-4.2,2.1-5.7
			c1.8-2.4,4.2-2.3,6.5-0.3c4.4,4,5.9,11.5,3.3,16.4c-3.5,6.6-8.2,8.4-15.4,7.4c-7.9-1.1-9.9-6.9-11.8-12.9
			c-0.8-2.4-1.3-4.9-2.2-8.5c-2.4,2.6-4.3,4.5-6,6.5c-4.3,5-8.6,10-13,14.9c-4.5,5-10,6.1-16.2,3.5c-5.6-2.4-7.2-7.4-7.5-12.7
			c-0.5-7.8-0.5-15.7-0.7-23.6c-0.1-4.3,3.4-6.9,7.5-5.6c5.8,1.8,8.7,7.3,7.7,13.4c-0.6,3.9-0.3,7.9-0.3,11.8
			C750.8,509.7,751.5,510.2,752.4,511.7z"/>
		<path d="M830.9,444.9c-2.9-1.1-6-1.9-8.7-3.4c-2.9-1.7-3.2-4.5-1.8-7.5c2.9-6.1,8.1-9,14.5-10.2c4.1-0.8,5.7,2.2,7.4,5
			c1.6,2.6,1.9,5-0.6,7.2c-0.4,0.3-0.6,0.8-0.8,1.2C838.4,444,838.4,444,830.9,444.9z"/>
		<path class="st0" d="M586.2,473.9c0.5-1.1,0.9-2.4,1.7-3.2c12-13.3,24-26.7,36.1-39.9c10.8-11.8,23.6-21.4,36.4-30.8
			c6.3-4.6,13.7-4.9,21-5.2c8.3-0.4,15.3,3.3,22.7,8.3c-42,19.5-78.4,47.1-116.8,71.4C586.9,474.3,586.5,474.1,586.2,473.9z"/>
	</g>
</g>
</svg>
